<svg width="1024" height="1024" viewBox="0 0 1024 1024" xmlns="http://www.w3.org/2000/svg" role="img" aria-label="常备 App Logo">
  <defs>
    <linearGradient id="bg" x1="0" y1="0" x2="1" y2="1">
      <stop offset="0%" stop-color="#0B8C94"/>
      <stop offset="100%" stop-color="#006067"/>
    </linearGradient>
    <linearGradient id="highlight" x1="0" y1="0" x2="0" y2="1">
      <stop offset="0%" stop-color="#FFFFFF" stop-opacity="0.28"/>
      <stop offset="100%" stop-color="#FFFFFF" stop-opacity="0"/>
    </linearGradient>
    <filter id="shadow" x="-20%" y="-20%" width="140%" height="140%">
      <feDropShadow dx="0" dy="16" stdDeviation="18" flood-color="#003A3F" flood-opacity="0.25"/>
    </filter>
  </defs>

  <rect x="56" y="56" width="912" height="912" rx="212" fill="url(#bg)"/>
  <path d="M152 152h720a120 120 0 0 1 120 120v120c-150-12-296-48-420-140C430 160 286 146 152 152Z" fill="url(#highlight)"/>

  <g filter="url(#shadow)">
    <rect x="232" y="344" width="560" height="420" rx="112" fill="#FFFFFF"/>
    <rect x="390" y="268" width="244" height="108" rx="54" fill="#FFFFFF"/>
    <rect x="448" y="300" width="128" height="44" rx="22" fill="#0B8C94"/>

    <rect x="478" y="454" width="68" height="200" rx="24" fill="#F44336"/>
    <rect x="412" y="520" width="200" height="68" rx="24" fill="#F44336"/>
  </g>

  <circle cx="736" cy="736" r="82" fill="#18A0AA"/>
  <path d="M703 740l24 24 44-50" fill="none" stroke="#FFFFFF" stroke-width="20" stroke-linecap="round" stroke-linejoin="round"/>
</svg>
